<svg width="349" height="73" viewBox="0 0 349 73" fill="none" xmlns="http://www.w3.org/2000/svg">
<g clip-path="url(#clip0_403_2)">
<path d="M158.17 0H0V73H158.17V0Z" fill="#2774AE"/>
<path d="M22.9343 43.3716C22.8616 42.0888 22.8616 40.803 22.9343 39.5202L24.7761 18.6948H31.6036L29.6797 39.6958C29.2691 44.2495 31.0639 47.4804 35.6156 47.4804C40.1673 47.4804 42.7246 44.1793 43.1235 40.1523L45.0709 18.6831H51.8866L50.0097 39.8831C49.2354 48.0775 43.8156 54.153 35.0408 54.153C28.2016 54.1647 23.7907 49.7514 22.9343 43.3716Z" fill="white"/>
<path d="M54.6669 36.3127C55.5585 26.3273 62.3156 18.0276 73.9997 18.0276C77.1836 17.9835 80.3083 18.8884 82.974 20.6264L82.188 28.8207C81.1789 27.4613 79.8427 26.3776 78.3028 25.6696C76.763 24.9617 75.0692 24.6524 73.378 24.7704C66.1164 24.7704 62.1279 29.8158 61.553 36.1839C60.9782 42.5521 64.1808 47.4805 71.2312 47.4805C73.0645 47.4878 74.8789 47.1101 76.5564 46.372C78.2339 45.6338 79.737 44.5517 80.968 43.196L80.2055 51.683C77.3079 53.3455 74.0336 54.2439 70.6916 54.2935C59.1247 54.2466 53.834 45.6777 54.6669 36.3127Z" fill="white"/>
<path d="M88.429 18.6948H95.233L92.7577 46.9771H102.518C103.21 46.9771 105.533 46.9771 106.166 46.8951C106.166 47.2463 105.545 53.4389 105.545 53.4389H85.332L88.429 18.6948Z" fill="white"/>
<path d="M125.675 17.1028H125.206L106.554 53.3921H113.792L116.408 47.8784H129.558L131.201 53.3921H138.427L125.675 17.1028ZM123.927 31.6653C124.144 31.1955 124.313 30.7053 124.432 30.202H124.549C124.592 30.6994 124.674 31.1926 124.795 31.677C125.183 33.2574 127.834 42.0487 127.834 42.0487H119.223C119.223 42.0487 123.822 31.8877 123.927 31.6653Z" fill="white"/>
<path d="M200.074 57.817V56.0143C204.532 56.0143 205.939 54.9607 205.939 51.683V36.3595H186.888V51.683C186.888 54.9958 188.307 55.9909 193.211 56.0143V57.817H174.969V56.0143C179.415 56.0143 180.835 54.9607 180.835 51.683V20.9073C180.835 17.6296 179.474 16.6111 174.969 16.576V14.7733H193.035V16.576C188.237 16.576 186.841 17.5945 186.841 20.9073V34.3226H205.939V20.9073C205.939 17.6296 204.543 16.6111 200.003 16.576V14.7733H217.67V16.576C213.318 16.576 211.993 17.6296 211.993 20.9073V51.683C211.993 54.9607 213.377 55.9909 217.929 56.0143V57.817H200.074Z" fill="black"/>
<path d="M232.018 58.5779C224.451 58.5779 218.28 51.6595 218.28 43.1725C218.28 34.6855 224.451 27.7672 232.018 27.7672C240.006 27.7672 245.18 33.6203 245.238 42.9852H224.779C224.779 51.484 228.299 56.5293 234.106 56.5293C238.669 56.5293 241.59 53.4974 243.62 50.7933L244.863 51.8586C242.435 55.3587 239.174 58.5779 232.018 58.5779ZM231.888 29.5699C227.196 29.5699 224.779 33.3627 224.779 40.8313V41.0069H239.138V40.8313C239.138 33.3627 236.698 29.5699 231.888 29.5699Z" fill="black"/>
<path d="M257.099 58.5779C252.746 58.5779 248.359 56.3889 248.359 51.5542C248.359 45.4318 258.33 42.3882 264.302 40.5621C265.299 40.2577 266.202 39.9884 266.941 39.7309H267.058V33.6437C267.058 30.6352 263.457 29.5699 260.383 29.5699C258.257 29.4816 256.154 30.0409 254.354 31.1737L253.99 31.3961L254.412 31.478C255.165 31.5882 255.848 31.9769 256.326 32.5669C256.804 33.1569 257.042 33.9049 256.993 34.6621C256.993 35.5935 256.622 36.4868 255.962 37.1454C255.302 37.804 254.407 38.174 253.474 38.174C252.54 38.174 251.645 37.804 250.985 37.1454C250.325 36.4868 249.954 35.5935 249.954 34.6621C249.954 30.9161 254.799 27.7672 260.512 27.7672C269.217 27.7672 272.607 30.1084 272.607 36.301V51.5191C272.607 54.6329 273.346 55.2182 274.73 55.2182C276.373 55.2182 277.077 52.877 277.077 50.805H278.754C278.696 54.3988 277.006 58.1565 272.408 58.1565C268.982 58.1565 267.997 56.1313 267.457 52.6312V52.4907H267.305V52.596C265.768 56.6815 262.389 58.5779 257.099 58.5779ZM266.847 41.3698C261.31 42.7043 254.846 46.0523 254.846 51.2381C254.846 54.3871 256.559 56.2601 259.433 56.2601C263.715 56.2601 267.058 52.198 267.058 47.0122V41.3112L266.847 41.3698Z" fill="black"/>
<path d="M278.672 57.817V56.0143C282.309 56.0143 283.47 55.2885 283.47 53.1931V19.7718C283.47 17.6764 282.297 16.9857 278.672 16.9623V15.1479L289.078 14.785V53.1931C289.078 55.2885 290.251 55.9909 293.887 56.0143V57.817H278.672Z" fill="black"/>
<path d="M306.698 58.5779C301.325 58.5779 299.037 56.3303 299.037 51.0508V30.3308H294.427V28.5047C300.152 27.9896 301.02 26.3741 302.639 18.6831H304.598V28.2822H313.384V30.3308H304.598V53.3336C304.598 55.6748 305.771 56.7752 308.246 56.7752C309.314 56.7752 312.786 56.0962 312.786 49.7515V48.6511H314.464V49.5524C314.499 55.9557 312.235 58.5779 306.698 58.5779Z" fill="black"/>
<path d="M338.911 57.817V36.9449C338.911 30.8693 335.638 29.9211 333.679 29.9211C329.045 29.9211 325.808 35.6338 325.808 40.7494V53.1931C325.808 55.3002 326.981 55.9909 330.735 56.0143V57.817H315.719V56.0143C319.062 56.0143 320.2 55.2651 320.2 53.1931V19.7718C320.2 17.6998 319.027 16.9857 315.719 16.9623V15.1479L325.808 14.785V34.0651H325.984V33.9715C326.706 32.1198 327.979 30.533 329.631 29.424C331.284 28.3149 333.237 27.7368 335.228 27.7672C338.677 27.7672 344.472 29.2422 344.472 39.1339V53.1814C344.472 55.2534 345.645 55.9792 348.965 56.0026V57.8053L338.911 57.817Z" fill="black"/>
</g>
<defs>
<clipPath id="clip0_403_2">
<rect width="349" height="73" fill="white"/>
</clipPath>
</defs>
</svg>
