<svg xmlns="http://www.w3.org/2000/svg" width="313" height="469" viewBox="0 0 313 469"><rect width="100%" height="100%" fill="#DDDDDD"/><path fill="#999999" d="M103.4 267.28h24.67q2.66 0 4.23 1.5 1.56 1.5 1.56 3.96v9.84H67.89v-5.45q0-1.67.7-3.49.7-1.83 2.23-3.3l29.19-29.26q3.66-3.72 6.55-7.11 2.89-3.39 4.82-6.72 1.93-3.32 2.96-6.75 1.03-3.42 1.03-7.21 0-3.46-1-6.09-.99-2.62-2.82-4.42-1.83-1.8-4.39-2.69-2.56-.9-5.75-.9-2.93 0-5.42.83-2.5.83-4.43 2.33-1.92 1.49-3.25 3.49-1.33 1.99-2 4.39-1.13 3.06-2.93 4.05-1.79 1-5.18.47l-8.65-1.53q1-6.92 3.86-12.14 2.86-5.22 7.15-8.71 4.29-3.49 9.84-5.25 5.55-1.76 11.94-1.76 6.65 0 12.17 1.96t9.44 5.55q3.92 3.59 6.12 8.65 2.19 5.05 2.19 11.23 0 5.32-1.56 9.85-1.56 4.52-4.19 8.64-2.63 4.12-6.15 7.98-3.53 3.86-7.38 7.85L91.3 269.21q3.12-.93 6.22-1.43 3.09-.5 5.88-.5Zm43.63 6.26q0-2.07.76-3.93.76-1.86 2.09-3.19 1.33-1.33 3.2-2.13 1.86-.8 3.99-.8 2.12 0 3.95.8t3.2 2.13q1.36 1.33 2.16 3.19.79 1.86.79 3.93 0 2.12-.79 3.95-.8 1.83-2.16 3.16-1.37 1.33-3.2 2.1-1.83.76-3.95.76-2.13 0-3.99-.76-1.87-.77-3.2-2.1t-2.09-3.16q-.76-1.83-.76-3.95Zm0-47.42q0-2.06.76-3.92.76-1.86 2.09-3.19 1.33-1.33 3.2-2.13 1.86-.8 3.99-.8 2.12 0 3.95.8t3.2 2.13q1.36 1.33 2.16 3.19.79 1.86.79 3.92 0 2.13-.79 3.96-.8 1.83-2.16 3.16-1.37 1.33-3.2 2.09-1.83.77-3.95.77-2.13 0-3.99-.77-1.87-.76-3.2-2.09-1.33-1.33-2.09-3.16-.76-1.83-.76-3.96Zm43.02-11.37-8.64-1.53q.99-6.92 3.85-12.14 2.86-5.22 7.15-8.71 4.29-3.49 9.84-5.25 5.56-1.76 11.94-1.76 6.65 0 12 1.89 5.36 1.9 9.15 5.26 3.79 3.35 5.82 7.88 2.02 4.52 2.02 9.77 0 4.59-1.03 8.08t-2.96 6.09q-1.92 2.59-4.78 4.38-2.86 1.8-6.45 3 8.64 2.72 12.9 8.31 4.25 5.59 4.25 14.03 0 7.18-2.66 12.7t-7.18 9.28q-4.52 3.76-10.47 5.69-5.95 1.92-12.6 1.92-7.25 0-12.64-1.66-5.39-1.66-9.38-4.92-3.99-3.26-6.78-7.98-2.79-4.72-4.79-10.91l7.25-2.99q2.86-1.2 5.35-.63 2.5.57 3.63 2.69 1.2 2.33 2.63 4.59t3.42 4.03q2 1.76 4.69 2.85 2.69 1.1 6.42 1.1 4.19 0 7.31-1.36 3.13-1.36 5.22-3.56 2.1-2.19 3.13-4.89 1.03-2.69 1.03-5.42 0-3.45-.73-6.28-.74-2.83-3.06-4.82-2.33-2-6.69-3.13-4.35-1.13-11.67-1.13v-11.7q6.05-.07 10.04-1.13 3.99-1.07 6.36-2.96 2.36-1.9 3.29-4.56.93-2.66.93-5.85 0-6.78-3.79-10.31-3.79-3.52-10.11-3.52-2.93 0-5.39.83-2.46.83-4.42 2.33-1.96 1.49-3.29 3.49-1.33 1.99-2 4.39-1.13 3.06-2.96 4.05-1.82 1-5.15.47Z"/></svg>