<svg xmlns="http://www.w3.org/2000/svg" width="353" height="469" viewBox="0 0 353 469"><rect width="100%" height="100%" fill="#DDDDDD"/><path fill="#999999" d="m87.475 212.225-9.75-1.72q1.12-7.8 4.35-13.69 3.22-5.89 8.06-9.83 4.84-3.93 11.1-5.92 6.26-1.99 13.46-1.99 7.5 0 13.54 2.14 6.04 2.13 10.31 5.92 4.28 3.79 6.56 8.89 2.29 5.1 2.29 11.03 0 5.17-1.16 9.11-1.16 3.93-3.34 6.86-2.17 2.93-5.4 4.95-3.22 2.03-7.27 3.37 9.75 3.08 14.55 9.38 4.8 6.3 4.8 15.83 0 8.1-3 14.32-3 6.22-8.1 10.46-5.1 4.24-11.81 6.42-6.72 2.17-14.22 2.17-8.17 0-14.25-1.87-6.07-1.88-10.57-5.55-4.5-3.68-7.65-9-3.15-5.33-5.4-12.3l8.17-3.38q3.23-1.35 6.04-.71 2.81.64 4.09 3.04 1.35 2.62 2.96 5.17 1.61 2.55 3.86 4.54 2.25 1.98 5.29 3.22 3.04 1.24 7.24 1.24 4.72 0 8.25-1.54 3.52-1.53 5.88-4.01 2.37-2.48 3.53-5.51 1.16-3.04 1.16-6.11 0-3.91-.82-7.09-.83-3.19-3.45-5.44-2.63-2.25-7.54-3.53-4.91-1.27-13.16-1.27v-13.2q6.82-.07 11.32-1.28 4.5-1.2 7.16-3.33 2.67-2.14 3.72-5.14 1.05-3 1.05-6.6 0-7.65-4.28-11.63-4.27-3.97-11.4-3.97-3.3 0-6.07.94-2.78.94-4.99 2.62-2.21 1.69-3.71 3.94t-2.25 4.95q-1.28 3.45-3.34 4.58-2.06 1.12-5.81.52Zm77.1 66.3q0-2.33.86-4.43.86-2.09 2.36-3.59t3.6-2.41q2.1-.89 4.5-.89t4.47.89q2.06.91 3.59 2.41 1.54 1.5 2.44 3.59.9 2.1.9 4.43 0 2.4-.9 4.46-.9 2.07-2.44 3.57-1.53 1.5-3.59 2.36-2.07.86-4.47.86t-4.5-.86q-2.1-.86-3.6-2.36t-2.36-3.57q-.86-2.06-.86-4.46Zm0-53.47q0-2.33.86-4.43.86-2.1 2.36-3.6t3.6-2.4q2.1-.9 4.5-.9t4.47.9q2.06.9 3.59 2.4 1.54 1.5 2.44 3.6.9 2.1.9 4.43 0 2.4-.9 4.46t-2.44 3.56q-1.53 1.5-3.59 2.36-2.07.87-4.47.87t-4.5-.87q-2.1-.86-3.6-2.36t-2.36-3.56q-.86-2.06-.86-4.46Zm51.07 22.79h33v-35.47q0-5.03.68-11.1l-33.68 46.57Zm49.13 0h13.65v10.73q0 1.5-.98 2.59-.97 1.09-2.77 1.09h-9.9v26.47h-16.13v-26.47h-45.75q-1.87 0-3.3-1.17-1.42-1.16-1.8-2.88l-1.95-9.38 51.38-68.62h17.55v67.64Z"/></svg>