<svg xmlns="http://www.w3.org/2000/svg" width="976" height="550" viewBox="0 0 976 550"><rect width="100%" height="100%" fill="#DDDDDD"/><path fill="#999999" d="M317.985 348.975h35.75v25.44h-110v-25.44h40.28v-115.91q0-6.88.42-14.16l-28.6 23.92q-2.48 1.93-4.89 2.41-2.4.48-4.53.07-2.13-.42-3.78-1.45t-2.48-2.27l-10.72-14.71 60.63-51.56h27.92v173.66Zm183.7-173.39-58.99 72.19-6.88 8.53q5.78-2.89 12.45-4.47 6.67-1.58 14.37-1.58 11.27 0 21.93 3.71 10.65 3.71 18.77 11.21 8.11 7.49 13.06 18.63 4.95 11.13 4.95 25.98 0 13.89-5.09 26.06-5.09 12.17-14.3 21.24-9.21 9.08-22.2 14.3-13 5.23-28.67 5.23-15.95 0-28.6-5.09-12.65-5.09-21.59-14.23t-13.68-22q-4.75-12.86-4.75-28.53 0-14.03 5.71-28.81t17.67-30.73l47.44-63.66q2.47-3.3 7.22-5.64 4.74-2.34 10.93-2.34h30.25Zm-51.29 173.25q8.11 0 14.92-2.75 6.8-2.75 11.69-7.7 4.88-4.95 7.63-11.61 2.75-6.67 2.75-14.51 0-8.53-2.62-15.33-2.61-6.81-7.42-11.55-4.81-4.75-11.55-7.22-6.74-2.48-14.85-2.48t-14.71 2.75q-6.6 2.75-11.28 7.64-4.67 4.88-7.29 11.55-2.61 6.66-2.61 14.36 0 8.25 2.27 15.06 2.27 6.81 6.74 11.62 4.47 4.81 11.07 7.49 6.6 2.68 15.26 2.68Zm94.6 6.88q0-4.26 1.58-8.11 1.58-3.85 4.33-6.6 2.75-2.75 6.6-4.4 3.85-1.65 8.25-1.65t8.18 1.65q3.78 1.65 6.6 4.4 2.82 2.75 4.47 6.6 1.65 3.85 1.65 8.11 0 4.4-1.65 8.18-1.65 3.78-4.47 6.53-2.82 2.75-6.6 4.33-3.78 1.59-8.18 1.59t-8.25-1.59q-3.85-1.58-6.6-4.33-2.75-2.75-4.33-6.53-1.58-3.78-1.58-8.18Zm0-98.04q0-4.26 1.58-8.11 1.58-3.85 4.33-6.6 2.75-2.75 6.6-4.4 3.85-1.65 8.25-1.65t8.18 1.65q3.78 1.65 6.6 4.4 2.82 2.75 4.47 6.6 1.65 3.85 1.65 8.11 0 4.4-1.65 8.18-1.65 3.78-4.47 6.53-2.82 2.75-6.6 4.34-3.78 1.58-8.18 1.58t-8.25-1.58q-3.85-1.59-6.6-4.34-2.75-2.75-4.33-6.53-1.58-3.78-1.58-8.18Zm101.61-22.41q0 16.64 8.6 25.37 8.59 8.73 24.4 8.73 8.25 0 14.71-2.61 6.47-2.62 10.87-7.15 4.4-4.54 6.67-10.73 2.26-6.19 2.26-13.34 0-8.11-2.47-14.5-2.48-6.4-7.01-10.8-4.54-4.4-10.8-6.73-6.25-2.34-13.68-2.34-7.7 0-13.89 2.54-6.18 2.55-10.58 7.08-4.4 4.54-6.74 10.8-2.34 6.25-2.34 13.68Zm-16.64 139.15 61.74-77.14q2.34-2.89 4.4-5.64 2.06-2.75 3.99-5.5-6.88 4.4-15.13 6.67-8.25 2.27-17.32 2.27-10.31 0-20.21-3.57-9.9-3.58-17.6-10.8-7.7-7.22-12.45-17.87-4.74-10.66-4.74-24.96 0-13.34 4.95-25.02 4.95-11.69 13.89-20.49 8.93-8.8 21.45-13.89 12.51-5.09 27.63-5.09 15.27 0 27.44 4.82 12.16 4.81 20.76 13.47 8.59 8.66 13.2 20.76 4.6 12.1 4.6 26.54 0 9.21-1.58 17.46t-4.47 15.89q-2.88 7.63-7.01 14.91-4.12 7.29-9.21 14.44l-45.51 64.9q-2.34 3.3-7.02 5.57-4.67 2.27-10.58 2.27h-31.22Z"/></svg>