<?xml version="1.0" encoding="UTF-8"?><svg id="Layer_2" xmlns="http://www.w3.org/2000/svg" viewBox="0 0 42.16 55.54"><defs><style>.cls-1{fill:#fff;}</style></defs><g id="Layer_1-2"><path class="cls-1" d="M29.76,11.73c-3.88-3.87-7.57-7.57-8.67-11.73-1.08,4.16-4.8,7.86-8.68,11.73C6.6,17.54,0,24.12,0,34c-.25,11.64,8.98,21.28,20.62,21.53,11.64,.25,21.28-8.98,21.53-20.62,0-.31,0-.61,0-.92,0-9.88-6.59-16.46-12.4-22.27ZM10.85,35.92c-.64,.81-1.2,1.69-1.65,2.62-.07,.15-.2,.26-.36,.3h-.18c-.47,0-1-.92-1-.92-.14-.22-.27-.45-.4-.69l-.09-.19c-1.22-2.79-.16-6.76-.16-6.76,.52-1.93,1.38-3.77,2.52-5.41,.7-1.04,1.46-2.05,2.28-3l1,1,4.72,4.82c.18,.2,.18,.52,0,.72l-4.93,5.47s-1.75,2.04-1.75,2.04Zm10.48,13.81c-4.03-.02-7.27-3.31-7.25-7.33,.01-1.77,.67-3.48,1.85-4.81,1.54-1.83,3.42-3.63,5.46-6,2.42,2.58,4,4.35,5.55,6.29,.12,.15,.23,.31,.32,.48,.85,1.21,1.3,2.65,1.3,4.12,.01,3.99-3.22,7.24-7.21,7.25,0,0-.01,0-.02,0Zm13.68-11.59c-.09,.3-.35,.53-.67,.58h-.14c-.29-.09-.53-.29-.68-.55-1.26-1.9-2.7-3.67-4.28-5.31l-1.93-2-6.41-6.65c-1.35-1.25-2.63-2.56-3.84-3.94-.03-.05-.06-.1-.1-.15-.22-.31-.39-.64-.51-1v-.19c-.18-1.1,.19-2.23,1-3,1.24-1.24,2.49-2.49,3.67-3.79,1.3,1.44,2.69,2.82,4.06,4.19,2.79,2.6,5.32,5.48,7.55,8.58,1.88,2.66,2.9,5.83,2.93,9.09-.02,1.4-.23,2.8-.65,4.14Z"/></g></svg>