<svg xmlns="http://www.w3.org/2000/svg" width="230" height="230" viewBox="0 0 230 230"><rect width="100%" height="100%" fill="#DDDDDD"/><path fill="#999999" d="M83.375 141.07h12.74v9.06h-39.2v-9.06h14.35V99.76q0-2.45.15-5.05l-10.19 8.53q-.88.68-1.74.85-.86.18-1.62.03-.76-.15-1.34-.52-.59-.36-.89-.8l-3.82-5.25 21.61-18.37h9.95v61.89Zm24.06 2.4q0-1.52.56-2.89.56-1.38 1.54-2.36t2.36-1.56q1.37-.59 2.94-.59 1.56 0 2.91.59 1.35.58 2.35 1.56 1.01.98 1.6 2.36.58 1.37.58 2.89 0 1.56-.58 2.91-.59 1.35-1.6 2.33-1 .98-2.35 1.54-1.35.57-2.91.57-1.57 0-2.94-.57-1.38-.56-2.36-1.54t-1.54-2.33q-.56-1.35-.56-2.91Zm0-34.94q0-1.52.56-2.89t1.54-2.35q.98-.98 2.36-1.57 1.37-.59 2.94-.59 1.56 0 2.91.59t2.35 1.57q1.01.98 1.6 2.35.58 1.37.58 2.89 0 1.57-.58 2.91-.59 1.35-1.6 2.33-1 .98-2.35 1.55-1.35.56-2.91.56-1.57 0-2.94-.56-1.38-.57-2.36-1.55-.98-.98-1.54-2.33-.56-1.34-.56-2.91Zm58.01 32.54h12.74v9.06h-39.2v-9.06h14.36V99.76q0-2.45.15-5.05l-10.2 8.53q-.88.68-1.74.85-.85.18-1.61.03-.76-.15-1.35-.52-.59-.36-.88-.8l-3.82-5.25 21.61-18.37h9.94v61.89Z"/></svg>