<svg xmlns="http://www.w3.org/2000/svg" width="479" height="359" viewBox="0 0 479 359"><rect width="100%" height="100%" fill="#DDDDDD"/><path fill="#999999" d="M140.275 195.52h39.6v-42.57q0-6.03.81-13.32l-40.41 55.89Zm58.95 0h16.38v12.87q0 1.8-1.17 3.11-1.17 1.3-3.33 1.3h-11.88v31.77h-19.35V212.8h-54.9q-2.25 0-3.96-1.39-1.71-1.4-2.16-3.47l-2.34-11.25 61.65-82.35h21.06v81.18Zm30.51 36.81q0-2.79 1.03-5.31 1.04-2.52 2.84-4.32 1.8-1.8 4.32-2.88 2.52-1.08 5.4-1.08 2.88 0 5.35 1.08 2.48 1.08 4.32 2.88 1.85 1.8 2.92 4.32 1.08 2.52 1.08 5.31 0 2.88-1.08 5.36-1.07 2.47-2.92 4.27-1.84 1.8-4.32 2.83-2.47 1.04-5.35 1.04-2.88 0-5.4-1.04-2.52-1.03-4.32-2.83-1.8-1.8-2.84-4.27-1.03-2.48-1.03-5.36Zm0-64.17q0-2.79 1.03-5.31 1.04-2.52 2.84-4.32 1.8-1.8 4.32-2.88 2.52-1.08 5.4-1.08 2.88 0 5.35 1.08 2.48 1.08 4.32 2.88 1.85 1.8 2.92 4.32 1.08 2.52 1.08 5.31 0 2.88-1.08 5.36-1.07 2.47-2.92 4.27-1.84 1.8-4.32 2.83-2.47 1.04-5.35 1.04-2.88 0-5.4-1.04-2.52-1.03-4.32-2.83-1.8-1.8-2.84-4.27-1.03-2.48-1.03-5.36Zm58.22-15.39-11.69-2.07q1.35-9.36 5.22-16.43 3.86-7.06 9.67-11.78 5.8-4.73 13.32-7.11 7.52-2.39 16.16-2.39 9 0 16.24 2.57 7.24 2.56 12.37 7.1 5.14 4.55 7.88 10.67t2.74 13.23q0 6.21-1.39 10.93-1.39 4.73-4.01 8.24-2.6 3.51-6.47 5.94-3.88 2.43-8.73 4.05 11.69 3.69 17.45 11.25 5.77 7.56 5.77 18.99 0 9.72-3.6 17.19-3.61 7.47-9.73 12.55-6.11 5.09-14.17 7.7-8.06 2.61-17.06 2.61-9.81 0-17.09-2.25-7.29-2.25-12.69-6.66-5.4-4.41-9.18-10.8-3.78-6.39-6.48-14.76l9.81-4.05q3.87-1.62 7.24-.85 3.38.76 4.91 3.64 1.62 3.15 3.55 6.21 1.94 3.06 4.64 5.45 2.7 2.38 6.34 3.86 3.64 1.49 8.69 1.49 5.67 0 9.89-1.85 4.24-1.84 7.07-4.81 2.83-2.97 4.23-6.61 1.39-3.65 1.39-7.34 0-4.68-.98-8.5-.99-3.83-4.15-6.53-3.15-2.7-9.04-4.23-5.9-1.53-15.8-1.53v-15.84q8.2-.09 13.59-1.53 5.41-1.44 8.6-4 3.2-2.57 4.46-6.17 1.25-3.6 1.25-7.92 0-9.18-5.12-13.95-5.13-4.77-13.69-4.77-3.95 0-7.28 1.13-3.33 1.12-5.99 3.15-2.65 2.02-4.45 4.72-1.8 2.7-2.7 5.94-1.53 4.14-4.01 5.49-2.48 1.35-6.98.63Z"/></svg>